<?xml version="1.0" encoding="UTF-8" standalone="no"?>
<!DOCTYPE svg PUBLIC "-//W3C//DTD SVG 1.1//EN"
 "http://www.w3.org/Graphics/SVG/1.1/DTD/svg11.dtd">
<!-- Generated by graphviz version 2.40.1 (20161225.0304)
 -->
<!-- Title: nodes Pages: 1 -->
<svg width="454pt" height="188pt"
 viewBox="0.00 0.00 454.42 188.00" xmlns="http://www.w3.org/2000/svg" xmlns:xlink="http://www.w3.org/1999/xlink">
<g id="graph0" class="graph" transform="scale(1 1) rotate(0) translate(4 184)">
<title>nodes</title>
<polygon fill="#ffffff" stroke="transparent" points="-4,4 -4,-184 450.4222,-184 450.4222,4 -4,4"/>
<!-- 0 -->
<g id="node1" class="node">
<title>0</title>
<polygon fill="none" stroke="#000000" points="258.6609,-180 186.7613,-180 186.7613,-144 258.6609,-144 258.6609,-180"/>
<text text-anchor="middle" x="222.7111" y="-157.8" font-family="Times,serif" font-size="14.00" fill="#000000"> sex &lt;= 0 </text>
</g>
<!-- 1 -->
<g id="node2" class="node">
<title>1</title>
<polygon fill="none" stroke="#000000" points="201.4298,-108 121.9924,-108 121.9924,-72 201.4298,-72 201.4298,-108"/>
<text text-anchor="middle" x="161.7111" y="-85.8" font-family="Times,serif" font-size="14.00" fill="#000000"> age &lt;= 45 </text>
</g>
<!-- 0&#45;&gt;1 -->
<g id="edge1" class="edge">
<title>0&#45;&gt;1</title>
<path fill="none" stroke="#000000" d="M207.3182,-143.8314C200.2207,-135.454 191.6631,-125.3531 183.8871,-116.1749"/>
<polygon fill="#000000" stroke="#000000" points="186.4459,-113.7807 177.3112,-108.4133 181.105,-118.3056 186.4459,-113.7807"/>
<text text-anchor="middle" x="175.2506" y="-129.1282" font-family="Times,serif" font-size="14.00" fill="#000000">True</text>
</g>
<!-- 2 -->
<g id="node3" class="node">
<title>2</title>
<polygon fill="none" stroke="#000000" points="324.4298,-108 244.9924,-108 244.9924,-72 324.4298,-72 324.4298,-108"/>
<text text-anchor="middle" x="284.7111" y="-85.8" font-family="Times,serif" font-size="14.00" fill="#000000"> age &lt;= 67 </text>
</g>
<!-- 0&#45;&gt;2 -->
<g id="edge2" class="edge">
<title>0&#45;&gt;2</title>
<path fill="none" stroke="#000000" d="M238.3563,-143.8314C245.5702,-135.454 254.2681,-125.3531 262.1716,-116.1749"/>
<polygon fill="#000000" stroke="#000000" points="264.9822,-118.2748 268.8552,-108.4133 259.6778,-113.7071 264.9822,-118.2748"/>
<text text-anchor="middle" x="270.7157" y="-129.1439" font-family="Times,serif" font-size="14.00" fill="#000000">False</text>
</g>
<!-- 3 -->
<g id="node4" class="node">
<title>3</title>
<polygon fill="#c1b2ff" stroke="#c1b2ff" points="91.6343,-36 -.2121,-36 -.2121,0 91.6343,0 91.6343,-36"/>
<text text-anchor="middle" x="45.7111" y="-13.8" font-family="Times,serif" font-size="14.00" fill="#000000"> Observation </text>
</g>
<!-- 1&#45;&gt;3 -->
<g id="edge3" class="edge">
<title>1&#45;&gt;3</title>
<path fill="none" stroke="#000000" d="M132.4394,-71.8314C117.6023,-62.6221 99.4096,-51.3301 83.5249,-41.4706"/>
<polygon fill="#000000" stroke="#000000" points="85.3156,-38.4628 74.9734,-36.1628 81.6241,-44.4102 85.3156,-38.4628"/>
</g>
<!-- 4 -->
<g id="node5" class="node">
<title>4</title>
<polygon fill="#c1b2ff" stroke="#c1b2ff" points="214.6341,-36 108.7881,-36 108.7881,0 214.6341,0 214.6341,-36"/>
<text text-anchor="middle" x="161.7111" y="-13.8" font-family="Times,serif" font-size="14.00" fill="#000000"> Chemotherapy </text>
</g>
<!-- 1&#45;&gt;4 -->
<g id="edge4" class="edge">
<title>1&#45;&gt;4</title>
<path fill="none" stroke="#000000" d="M161.7111,-71.8314C161.7111,-64.131 161.7111,-54.9743 161.7111,-46.4166"/>
<polygon fill="#000000" stroke="#000000" points="165.2112,-46.4132 161.7111,-36.4133 158.2112,-46.4133 165.2112,-46.4132"/>
</g>
<!-- 5 -->
<g id="node6" class="node">
<title>5</title>
<polygon fill="#c1b2ff" stroke="#c1b2ff" points="337.6341,-36 231.7881,-36 231.7881,0 337.6341,0 337.6341,-36"/>
<text text-anchor="middle" x="284.7111" y="-13.8" font-family="Times,serif" font-size="14.00" fill="#000000"> Chemotherapy </text>
</g>
<!-- 2&#45;&gt;5 -->
<g id="edge5" class="edge">
<title>2&#45;&gt;5</title>
<path fill="none" stroke="#000000" d="M284.7111,-71.8314C284.7111,-64.131 284.7111,-54.9743 284.7111,-46.4166"/>
<polygon fill="#000000" stroke="#000000" points="288.2112,-46.4132 284.7111,-36.4133 281.2112,-46.4133 288.2112,-46.4132"/>
</g>
<!-- 6 -->
<g id="node7" class="node">
<title>6</title>
<polygon fill="#c1b2ff" stroke="#c1b2ff" points="446.6343,-36 354.7879,-36 354.7879,0 446.6343,0 446.6343,-36"/>
<text text-anchor="middle" x="400.7111" y="-13.8" font-family="Times,serif" font-size="14.00" fill="#000000"> Observation </text>
</g>
<!-- 2&#45;&gt;6 -->
<g id="edge6" class="edge">
<title>2&#45;&gt;6</title>
<path fill="none" stroke="#000000" d="M313.9828,-71.8314C328.8199,-62.6221 347.0126,-51.3301 362.8973,-41.4706"/>
<polygon fill="#000000" stroke="#000000" points="364.7981,-44.4102 371.4488,-36.1628 361.1066,-38.4628 364.7981,-44.4102"/>
</g>
</g>
</svg>
